<svg version="1.1" id="Layer_1" xmlns="http://www.w3.org/2000/svg" xmlns:xlink="http://www.w3.org/1999/xlink" x="0px" y="0px"
	 width="100%" viewBox="0 0 815 523" enable-background="new 0 0 815 523" xml:space="preserve">
<path fill="#444951" opacity="1.000000" stroke="none" 
	d="
M816.000000,308.000000 
	C816.000000,349.687561 816.000000,391.375122 815.594788,433.556122 
	C810.090759,434.032654 804.960999,434.371918 799.898743,433.933228 
	C783.555176,432.516846 767.107544,431.612244 750.944092,428.999939 
	C734.433594,426.331573 718.065430,422.419006 701.906067,418.048645 
	C687.015564,414.021515 672.234619,409.310333 657.852966,403.744080 
	C634.596558,394.742920 612.295044,383.660095 590.993591,370.569641 
	C569.727051,357.500702 549.274048,343.354767 530.473328,326.907410 
	C526.746948,323.647491 523.371399,319.986664 520.054932,316.276062 
	C537.079346,304.549316 543.019348,285.453278 534.807373,269.301483 
	C529.984009,259.814636 521.290466,255.290237 511.838806,252.252075 
	C499.534393,248.296906 486.987305,245.103012 474.614014,241.352676 
	C469.756042,239.880249 465.965546,237.115540 465.934082,231.211227 
	C465.903534,225.482605 468.516785,221.440674 474.377411,218.966873 
	C481.639343,215.901566 488.992249,216.685272 496.326355,218.744797 
	C504.550110,221.054153 507.345612,227.542847 508.451843,235.115326 
	C517.098328,235.115326 525.386169,235.115326 533.656616,235.115326 
	C534.804138,220.462830 525.913879,206.858337 511.588806,201.099121 
	C498.396576,195.795364 484.833038,195.121414 470.972656,197.446411 
	C467.756226,190.734528 464.411591,184.452377 461.397980,178.015244 
	C454.295654,162.844498 446.444275,147.941986 440.546661,132.308258 
	C430.692535,106.186455 422.988312,79.328285 419.705475,51.473892 
	C417.728210,34.697441 416.541809,17.827778 415.000000,1.000000 
	C444.020905,1.000000 473.041779,1.000000 502.531342,1.456701 
	C503.077942,4.575063 502.899536,7.273575 503.276031,9.892310 
	C505.448853,25.005543 506.857819,40.304363 510.248352,55.146774 
	C514.123535,72.110764 519.098694,88.912926 524.932861,105.309700 
	C529.078552,116.961197 534.920471,128.112335 540.944702,138.965363 
	C548.012207,151.697830 555.898254,163.994186 563.813049,176.231461 
	C568.846008,184.013077 574.577148,191.343185 579.532471,198.952942 
	C570.818604,199.030121 562.567505,199.030121 554.398987,199.030121 
	C554.398987,240.005249 554.398987,280.214783 554.398987,320.542572 
	C555.358032,320.662018 555.997742,320.810791 556.637573,320.811310 
	C575.287964,320.826965 593.939941,320.966888 612.587646,320.742523 
	C617.871277,320.678925 623.231201,319.955475 628.403198,318.831238 
	C650.303955,314.070709 661.665527,292.118408 653.300842,271.496643 
	C649.723572,262.677551 642.899414,257.774231 633.951965,254.628586 
	C636.589294,252.930679 638.803528,251.505157 641.084961,250.411392 
	C641.910583,251.584152 642.517212,252.689148 643.450623,253.226120 
	C655.506775,260.161499 667.640564,266.962128 679.692688,273.904449 
	C695.026367,282.737030 711.780640,288.044220 728.425232,293.594666 
	C733.762207,295.374359 739.273376,296.719055 744.788147,297.860352 
	C756.937683,300.374695 769.072998,303.103088 781.340759,304.858826 
	C792.808838,306.500061 804.440369,306.998566 816.000000,308.000000 
z"/>
<path fill="#3D424A" opacity="1.000000" stroke="none" 
	d="
M519.834045,316.510742 
	C523.371399,319.986664 526.746948,323.647491 530.473328,326.907410 
	C549.274048,343.354767 569.727051,357.500702 590.993591,370.569641 
	C612.295044,383.660095 634.596558,394.742920 657.852966,403.744080 
	C672.234619,409.310333 687.015564,414.021515 701.906067,418.048645 
	C718.065430,422.419006 734.433594,426.331573 750.944092,428.999939 
	C767.107544,431.612244 783.555176,432.516846 799.898743,433.933228 
	C804.960999,434.371918 810.090759,434.032654 815.594788,434.024780 
	C816.000000,463.940765 816.000000,493.881561 816.000000,524.000000 
	C772.312622,524.000000 728.624939,524.000000 684.349487,523.670654 
	C683.103455,522.889893 682.505737,522.235107 681.777649,522.018555 
	C674.808411,519.945740 667.754761,518.137878 660.847717,515.879700 
	C651.749451,512.905151 642.756714,509.607025 633.728455,506.419983 
	C630.149414,505.156555 626.566101,503.895844 623.038452,502.498230 
	C614.003113,498.918579 604.867249,495.551971 596.017212,491.556183 
	C587.154358,487.554596 578.566650,482.937866 569.900085,478.509125 
	C562.735413,474.847900 555.565247,471.188171 548.521973,467.302094 
	C542.873413,464.185516 537.320801,460.872253 531.887512,457.393402 
	C522.964478,451.680054 514.036194,445.956177 505.366852,439.871033 
	C497.914154,434.639832 490.721436,429.021820 483.589935,423.353210 
	C471.821503,413.998810 459.907166,404.794647 448.604126,394.899139 
	C440.257660,387.592041 432.658356,379.408081 424.964935,371.385773 
	C418.664642,364.816101 412.652618,357.964996 406.629547,351.135712 
	C399.845093,343.443054 393.073761,335.731537 386.571564,327.802856 
	C385.124786,326.038635 384.825653,323.333252 384.458160,320.964600 
	C398.304932,320.867950 411.691620,320.867950 425.185425,320.867950 
	C425.185425,312.945679 425.185425,305.713562 425.185425,297.940338 
	C416.569550,297.940338 408.284393,297.940338 399.979553,297.580078 
	C398.001434,293.986908 396.024536,290.764984 394.088409,287.518738 
	C390.380615,281.301849 386.696075,275.071136 383.454529,268.714478 
	C395.481445,268.582825 407.055756,268.582825 419.122253,268.582825 
	C419.122253,264.266357 419.122253,260.634430 419.454102,257.077271 
	C425.239105,264.875183 430.692261,272.598328 436.086182,280.745605 
	C435.957550,298.381073 444.649750,311.597931 460.490112,318.087006 
	C480.481323,326.276459 500.273071,325.335632 519.834045,316.510742 
z"/>
<path fill="#383E46" opacity="1.000000" stroke="none" 
	d="
M383.998108,321.061218 
	C384.825653,323.333252 385.124786,326.038635 386.571564,327.802856 
	C393.073761,335.731537 399.845093,343.443054 406.629547,351.135712 
	C412.652618,357.964996 418.664642,364.816101 424.964935,371.385773 
	C432.658356,379.408081 440.257660,387.592041 448.604126,394.899139 
	C459.907166,404.794647 471.821503,413.998810 483.589935,423.353210 
	C490.721436,429.021820 497.914154,434.639832 505.366852,439.871033 
	C514.036194,445.956177 522.964478,451.680054 531.887512,457.393402 
	C537.320801,460.872253 542.873413,464.185516 548.521973,467.302094 
	C555.565247,471.188171 562.735413,474.847900 569.900085,478.509125 
	C578.566650,482.937866 587.154358,487.554596 596.017212,491.556183 
	C604.867249,495.551971 614.003113,498.918579 623.038452,502.498230 
	C626.566101,503.895844 630.149414,505.156555 633.728455,506.419983 
	C642.756714,509.607025 651.749451,512.905151 660.847717,515.879700 
	C667.754761,518.137878 674.808411,519.945740 681.777649,522.018555 
	C682.505737,522.235107 683.103455,522.889893 683.880859,523.670654 
	C629.979126,524.000000 575.958191,524.000000 521.395752,523.659790 
	C519.356079,522.106750 517.987366,520.668823 516.337219,519.720581 
	C509.722931,515.919861 502.692169,512.753540 496.416534,508.471527 
	C480.372711,497.524567 464.344818,486.507996 448.893280,474.753265 
	C435.579498,464.624817 422.730377,453.816101 410.302368,442.613068 
	C398.707977,432.161407 387.489075,421.208466 376.917877,409.727570 
	C363.102600,394.723297 349.577362,379.388000 336.887421,363.431549 
	C326.577301,350.467438 316.977783,336.809479 308.325378,322.685974 
	C295.589691,301.897369 284.006561,280.403748 271.851257,259.257111 
	C270.190491,256.367859 268.061707,253.747620 266.105591,250.549866 
	C266.091125,242.955322 265.405304,235.992142 260.972290,229.603119 
	C258.947845,226.487106 256.989197,223.714706 254.866486,220.660248 
	C252.789886,218.635681 250.877365,216.893173 248.972366,214.720901 
	C248.509399,211.875549 248.312683,209.365997 247.521591,207.060410 
	C243.850906,196.362350 239.548569,185.859772 236.326324,175.033051 
	C226.596298,142.340271 217.925797,109.321770 214.000854,75.383698 
	C211.144791,50.688107 209.940643,25.801464 208.000000,1.000000 
	C225.687561,1.000000 243.375122,1.000000 261.531342,1.468127 
	C262.421143,23.197712 262.905823,44.455185 266.941772,65.434235 
	C271.177673,87.452415 274.267090,109.775726 279.996979,131.398773 
	C286.036133,154.189026 293.711090,176.659973 302.334930,198.617050 
	C309.980286,218.082901 319.864532,236.673187 328.914948,255.576004 
	C329.605957,257.019348 331.526550,257.874054 332.955566,259.464844 
	C333.035492,280.115448 333.035492,300.303528 333.035492,321.061218 
	C350.510956,321.061218 367.254517,321.061218 383.998108,321.061218 
M286.611176,242.049271 
	C282.248352,242.049271 277.885498,242.049271 273.263733,242.049271 
	C273.520081,243.614929 273.571075,244.479172 273.675659,244.485703 
	C278.436981,244.783249 283.203003,245.005722 287.968475,245.236969 
	C287.776947,244.203064 287.585449,243.169159 286.611176,242.049271 
M262.109344,207.619095 
	C266.936005,206.499725 268.838715,202.610657 271.147949,198.684952 
	C266.412476,198.084290 264.079742,200.343384 262.109344,207.619095 
z"/>
<path fill="#30353E" opacity="1.000000" stroke="none" 
	d="
M44.000000,1.000000 
	C64.687561,1.000000 85.375122,1.000000 106.531342,1.449706 
	C107.117279,6.682414 106.989357,11.486277 107.394218,16.244812 
	C109.165695,37.066093 110.514572,57.946934 113.125038,78.666534 
	C115.695435,99.067978 118.944244,119.435890 123.073898,139.576874 
	C129.429504,170.574188 138.200226,200.971909 149.124313,230.689957 
	C154.573151,245.513062 159.999390,260.400879 166.558594,274.746033 
	C176.031143,295.462799 186.009033,315.988403 196.747818,336.073456 
	C205.044601,351.591125 214.260773,366.699371 224.120605,381.277863 
	C235.829788,398.590729 248.173965,415.531250 261.153961,431.911224 
	C273.823517,447.899384 287.159882,463.427917 301.094086,478.325287 
	C314.354431,492.502228 328.787659,505.580322 342.636292,519.211487 
	C344.003784,520.557495 344.890289,522.392151 346.000000,524.000000 
	C315.979095,524.000000 285.958221,524.000000 255.449585,523.635620 
	C251.184143,518.557068 247.568680,513.700806 243.592773,509.160248 
	C236.697311,501.285461 229.165741,493.935669 222.647720,485.769684 
	C212.094864,472.548676 202.009613,458.945892 191.985611,445.314087 
	C184.029938,434.494965 176.003159,423.680817 168.836151,412.341003 
	C159.692688,397.873993 151.061584,383.057220 142.799698,368.065979 
	C133.681656,351.521271 124.608643,334.897614 116.659447,317.777435 
	C108.053268,299.242371 100.435051,280.224518 92.978180,261.185242 
	C79.985199,228.010849 70.075165,193.788025 62.576324,159.048553 
	C56.596287,131.345123 52.490570,103.152145 49.166382,74.986053 
	C46.272072,50.462376 45.634678,25.672338 44.000000,1.000000 
z"/>
<path fill="#4A4F56" opacity="1.000000" stroke="none" 
	d="
M816.000000,307.531342 
	C804.440369,306.998566 792.808838,306.500061 781.340759,304.858826 
	C769.072998,303.103088 756.937683,300.374695 744.788147,297.860352 
	C739.273376,296.719055 733.762207,295.374359 728.425232,293.594666 
	C711.780640,288.044220 695.026367,282.737030 679.692688,273.904449 
	C667.640564,266.962128 655.506775,260.161499 643.450623,253.226120 
	C642.517212,252.689148 641.910583,251.584152 641.211975,250.096115 
	C654.990051,235.991684 652.897888,214.107590 636.713867,204.457184 
	C628.831299,199.756897 619.758911,199.383591 610.865662,199.124008 
	C600.581787,198.823837 590.285889,198.940216 579.995178,198.875763 
	C574.577148,191.343185 568.846008,184.013077 563.813049,176.231461 
	C555.898254,163.994186 548.012207,151.697830 540.944702,138.965363 
	C534.920471,128.112335 529.078552,116.961197 524.932861,105.309700 
	C519.098694,88.912926 514.123535,72.110764 510.248352,55.146774 
	C506.857819,40.304363 505.448853,25.005543 503.276031,9.892310 
	C502.899536,7.273575 503.077942,4.575063 503.000000,1.456701 
	C534.354248,1.000000 565.708435,1.000000 597.531372,1.448466 
	C599.857849,15.016499 600.979492,28.296947 603.800720,41.205975 
	C606.162903,52.014862 610.524109,62.385441 613.972046,72.959282 
	C615.144043,76.553604 615.603638,80.544205 617.469299,83.718674 
	C623.925232,94.703568 630.463257,105.682167 637.724548,116.139206 
	C644.234558,125.514404 651.254089,134.643127 658.952942,143.052765 
	C665.611328,150.325897 673.355225,156.658173 680.966187,162.989288 
	C686.913940,167.936905 693.085632,172.761673 699.711609,176.712112 
	C708.844543,182.157196 717.384460,188.679962 727.865112,191.856430 
	C734.438721,193.848740 740.527954,197.388565 746.947449,199.951279 
	C757.605408,204.206039 768.534485,207.290833 780.075134,208.378922 
	C792.088562,209.511597 804.028137,211.426910 816.000000,213.000000 
	C816.000000,244.354233 816.000000,275.708466 816.000000,307.531342 
z"/>
<path fill="#2C323A" opacity="1.000000" stroke="none" 
	d="
M43.531342,1.000000 
	C45.634678,25.672338 46.272072,50.462376 49.166382,74.986053 
	C52.490570,103.152145 56.596287,131.345123 62.576324,159.048553 
	C70.075165,193.788025 79.985199,228.010849 92.978180,261.185242 
	C100.435051,280.224518 108.053268,299.242371 116.659447,317.777435 
	C124.608643,334.897614 133.681656,351.521271 142.799698,368.065979 
	C151.061584,383.057220 159.692688,397.873993 168.836151,412.341003 
	C176.003159,423.680817 184.029938,434.494965 191.985611,445.314087 
	C202.009613,458.945892 212.094864,472.548676 222.647720,485.769684 
	C229.165741,493.935669 236.697311,501.285461 243.592773,509.160248 
	C247.568680,513.700806 251.184143,518.557068 254.980927,523.635620 
	C230.645767,524.000000 206.291550,524.000000 181.401718,523.661865 
	C177.196304,518.626648 173.532684,513.924683 169.855667,509.233337 
	C148.103226,481.480377 127.806297,452.732971 109.605156,422.496490 
	C91.645004,392.660339 75.130554,362.113220 61.018322,330.240753 
	C46.717670,297.942780 33.588284,265.204071 24.050909,231.190720 
	C16.961573,205.907852 11.161276,180.264694 4.650988,154.816772 
	C3.870556,151.766159 2.237736,148.933624 1.000001,146.000000 
	C1.000000,97.779388 1.000000,49.558781 1.000000,1.000000 
	C15.019082,1.000000 29.040882,1.000000 43.531342,1.000000 
z"/>
<path fill="#50545C" opacity="1.000000" stroke="none" 
	d="
M816.000000,212.531342 
	C804.028137,211.426910 792.088562,209.511597 780.075134,208.378922 
	C768.534485,207.290833 757.605408,204.206039 746.947449,199.951279 
	C740.527954,197.388565 734.438721,193.848740 727.865112,191.856430 
	C717.384460,188.679962 708.844543,182.157196 699.711609,176.712112 
	C693.085632,172.761673 686.913940,167.936905 680.966187,162.989288 
	C673.355225,156.658173 665.611328,150.325897 658.952942,143.052765 
	C651.254089,134.643127 644.234558,125.514404 637.724548,116.139206 
	C630.463257,105.682167 623.925232,94.703568 617.469299,83.718674 
	C615.603638,80.544205 615.144043,76.553604 613.972046,72.959282 
	C610.524109,62.385441 606.162903,52.014862 603.800720,41.205975 
	C600.979492,28.296947 599.857849,15.016499 598.000000,1.448466 
	C631.687561,1.000000 665.375122,1.000000 699.531311,1.454784 
	C700.427551,6.026398 700.168945,10.365075 701.414429,14.217462 
	C704.820862,24.753727 708.397095,35.284069 712.758118,45.451275 
	C719.366394,60.857616 730.632019,72.997253 743.069153,83.765381 
	C749.611694,89.429947 757.701538,93.342026 765.211121,97.847923 
	C780.824768,107.216423 798.262085,110.179932 816.000000,112.000000 
	C816.000000,145.354233 816.000000,178.708450 816.000000,212.531342 
z"/>
<path fill="#333841" opacity="1.000000" stroke="none" 
	d="
M346.468658,524.000000 
	C344.890289,522.392151 344.003784,520.557495 342.636292,519.211487 
	C328.787659,505.580322 314.354431,492.502228 301.094086,478.325287 
	C287.159882,463.427917 273.823517,447.899384 261.153961,431.911224 
	C248.173965,415.531250 235.829788,398.590729 224.120605,381.277863 
	C214.260773,366.699371 205.044601,351.591125 196.747818,336.073456 
	C186.009033,315.988403 176.031143,295.462799 166.558594,274.746033 
	C159.999390,260.400879 154.573151,245.513062 149.124313,230.689957 
	C138.200226,200.971909 129.429504,170.574188 123.073898,139.576874 
	C118.944244,119.435890 115.695435,99.067978 113.125038,78.666534 
	C110.514572,57.946934 109.165695,37.066093 107.394218,16.244812 
	C106.989357,11.486277 107.117279,6.682414 107.000000,1.449706 
	C123.354225,1.000000 139.708450,1.000000 156.531342,1.456791 
	C157.333328,9.873085 157.562546,17.838694 158.028763,25.790407 
	C158.511475,34.023766 159.134781,42.251575 159.864304,50.466923 
	C160.448944,57.050594 161.169403,63.627201 162.035172,70.179779 
	C163.424973,80.698563 164.695969,91.246338 166.555847,101.685890 
	C168.320969,111.593513 170.688629,121.398468 172.952271,131.211441 
	C175.996857,144.409805 179.004028,157.622147 182.395737,170.733170 
	C184.669601,179.523117 187.384964,188.214035 190.272598,196.825272 
	C192.587936,203.729889 195.459442,210.448013 197.944550,217.529755 
	C196.875443,219.221985 195.945908,220.633362 194.718933,222.199432 
	C192.356491,225.898270 190.291519,229.442398 188.026611,233.315735 
	C186.486282,240.988556 185.145920,248.332153 183.560364,255.948395 
	C181.234161,261.877533 179.153152,267.534058 176.777023,273.992706 
	C180.141327,273.992706 182.567535,273.992706 185.399078,274.027405 
	C187.152100,274.141693 188.499802,274.221283 190.082184,274.635681 
	C190.608978,279.348236 190.556046,283.786926 191.315872,288.081879 
	C191.812912,290.891266 193.487564,293.492340 194.902191,296.468689 
	C197.449356,297.150238 199.729050,297.549805 202.337418,298.037903 
	C204.105743,298.763733 205.545395,299.401062 207.161438,300.408875 
	C207.561646,302.549011 207.906693,304.313690 207.979431,306.089508 
	C208.076355,308.455688 207.728180,310.952484 211.267792,310.995605 
	C214.555145,311.035645 216.019836,309.632050 215.950455,306.190857 
	C215.796478,298.556000 215.921097,290.915833 215.903503,283.277863 
	C215.887100,276.157227 215.411041,275.632812 207.950928,274.268250 
	C206.544525,273.025238 205.360809,271.969391 204.111908,270.543976 
	C203.987274,266.029938 200.761398,264.191742 197.989380,261.576904 
	C197.689957,258.533844 197.469177,255.879684 197.532532,253.110199 
	C199.247681,251.874695 200.678696,250.754547 202.514465,249.571426 
	C204.272385,249.389709 205.625565,249.270966 207.236420,249.349213 
	C208.936447,250.515656 210.378815,251.485107 211.911957,252.818558 
	C214.079300,256.958344 212.878784,260.336884 210.409271,263.736816 
	C209.157013,265.131744 208.235260,266.391541 207.313507,267.651337 
	C208.880142,268.736877 210.446762,269.822449 212.346161,270.993896 
	C213.765869,271.437439 214.852814,271.795105 216.124664,272.462280 
	C217.385147,275.787018 219.206284,278.757324 219.391098,281.826202 
	C219.870224,289.782532 219.531631,297.785034 219.765320,305.761963 
	C219.807236,307.192810 221.024765,308.589203 221.699493,310.001526 
	C222.392319,308.589020 223.674530,307.181976 223.687653,305.763184 
	C223.833786,289.965027 223.786850,274.165039 223.785172,258.365570 
	C223.784485,251.944321 225.290817,245.026627 218.072418,240.508209 
	C218.023087,238.048935 218.010971,236.023407 218.241516,233.803772 
	C218.777359,233.064987 219.070526,232.520309 219.487183,231.898026 
	C219.765335,231.696884 219.886688,231.546478 220.310425,231.224976 
	C222.415573,230.527237 224.185059,229.973724 225.960907,229.769073 
	C225.972824,231.048477 225.978363,231.979004 225.648438,232.996277 
	C224.136719,234.410385 222.960464,235.737747 221.697128,237.164597 
	C221.512985,237.541473 221.585770,237.770645 221.965164,238.317871 
	C224.354828,242.729156 226.865982,242.316299 229.740326,239.448441 
	C230.626144,240.519104 231.310333,241.256302 231.983643,242.238617 
	C231.972748,242.483749 231.956421,242.974197 231.635452,243.161530 
	C230.111786,245.093170 227.885971,246.824341 227.863373,248.583786 
	C227.615829,267.865204 227.762482,287.151245 227.666595,306.435394 
	C227.650085,309.759644 229.055069,310.525269 231.945984,310.227844 
	C231.958405,311.699829 231.956345,312.770508 231.964035,313.947205 
	C231.973785,314.053253 232.048141,314.252716 231.661560,314.197083 
	C230.499039,314.187988 229.723099,314.234558 228.520813,314.208496 
	C226.080734,314.185516 224.067001,314.235199 221.682907,314.209595 
	C220.559982,314.173218 219.807419,314.212189 218.659515,314.180664 
	C217.195435,314.145050 216.126740,314.179932 214.621109,314.152832 
	C208.358719,314.093414 207.147797,315.080902 208.131897,319.442047 
	C209.095963,323.714294 212.571548,321.499939 215.438904,321.901611 
	C216.906784,321.906006 217.974686,321.870422 219.416321,321.883240 
	C220.539856,321.891571 221.289688,321.851440 222.468903,321.872803 
	C224.919495,321.894379 226.940689,321.854492 229.333466,321.884308 
	C230.458038,322.016113 231.210999,322.078186 232.045013,322.506989 
	C231.736191,323.960510 231.346298,325.047333 230.507339,326.096252 
	C227.051102,326.088531 224.043915,326.118652 220.623444,326.083313 
	C218.819931,326.051880 217.429688,326.085846 215.608582,326.065979 
	C214.529297,326.002228 213.792328,325.787659 213.249756,326.022461 
	C211.849243,326.628448 210.534653,327.432953 209.185745,328.158203 
	C210.484604,329.129974 211.692429,330.282623 213.119034,331.000549 
	C213.882065,331.384521 215.022202,331.019165 216.410217,331.025665 
	C218.222153,331.027588 219.616043,330.995850 221.459930,331.024872 
	C224.934845,331.043152 227.959763,331.000671 231.407501,331.034302 
	C233.545471,331.056366 235.260605,331.002289 237.343262,330.992310 
	C239.105179,330.603668 240.499588,330.170959 241.972839,330.098145 
	C244.132919,333.843079 246.088379,337.313416 248.316132,340.599152 
	C261.154541,359.534576 273.546570,378.800812 287.065399,397.239716 
	C304.654633,421.230377 324.497864,443.470581 345.909241,464.052124 
	C366.094635,483.455231 387.752014,501.325775 408.692566,519.948364 
	C409.792694,520.926697 410.245728,522.632751 411.000000,524.000000 
	C389.645782,524.000000 368.291534,524.000000 346.468658,524.000000 
M165.187119,245.682266 
	C169.364883,245.522400 173.828278,246.950562 177.889908,243.861862 
	C174.838837,241.450668 168.974899,240.538483 164.443710,241.649857 
	C163.453262,241.892776 162.617569,242.766663 161.710602,243.349960 
	C162.600922,244.104568 163.491241,244.859177 165.187119,245.682266 
M207.444717,260.834198 
	C207.445267,258.614502 207.662918,256.352264 207.243759,254.214890 
	C207.169373,253.835602 203.841324,253.327927 203.088104,254.030045 
	C201.990784,255.052841 200.947250,257.926392 201.516129,258.573669 
	C202.733231,259.958557 204.998764,260.422028 207.444717,260.834198 
z"/>
<path fill="#40454D" opacity="1.000000" stroke="none" 
	d="
M436.145416,280.321472 
	C430.692261,272.598328 425.239105,264.875183 419.371033,256.623932 
	C418.956085,253.470993 418.956085,250.846161 418.956085,247.683990 
	C399.102936,247.683990 379.714203,247.683990 360.248230,247.683990 
	C360.248230,238.738632 360.248230,230.341980 360.248230,221.495911 
	C381.650208,221.495911 402.730072,221.495911 423.727203,221.495911 
	C423.727203,213.797638 423.727203,206.560211 423.727203,198.878555 
	C403.916931,198.878555 384.456573,198.878555 364.992065,198.494537 
	C364.623230,196.673477 364.404541,195.179688 363.871429,193.808105 
	C357.727081,177.999039 350.885468,162.427277 345.478149,146.371811 
	C329.608093,99.250137 321.997894,50.596401 320.000000,1.000000 
	C351.354218,1.000000 382.708466,1.000000 414.531342,1.000000 
	C416.541809,17.827778 417.728210,34.697441 419.705475,51.473892 
	C422.988312,79.328285 430.692535,106.186455 440.546661,132.308258 
	C446.444275,147.941986 454.295654,162.844498 461.397980,178.015244 
	C464.411591,184.452377 467.756226,190.734528 470.626160,197.597672 
	C461.761505,200.701370 453.973633,204.392609 447.875275,211.320007 
	C437.417633,223.199341 436.424774,245.539413 451.236145,256.823944 
	C460.400330,263.806000 471.230865,266.236908 481.974579,269.100037 
	C490.897980,271.478058 500.374115,272.517090 507.816742,278.768066 
	C514.123047,284.064667 513.670410,293.268127 507.024658,298.090363 
	C490.013306,310.434021 465.327454,301.073334 461.433136,280.321472 
	C453.075928,280.321472 444.610657,280.321472 436.145416,280.321472 
z"/>
<path fill="#292F38" opacity="1.000000" stroke="none" 
	d="
M1.000001,146.468658 
	C2.237736,148.933624 3.870556,151.766159 4.650988,154.816772 
	C11.161276,180.264694 16.961573,205.907852 24.050909,231.190720 
	C33.588284,265.204071 46.717670,297.942780 61.018322,330.240753 
	C75.130554,362.113220 91.645004,392.660339 109.605156,422.496490 
	C127.806297,452.732971 148.103226,481.480377 169.855667,509.233337 
	C173.532684,513.924683 177.196304,518.626648 180.933060,523.661865 
	C162.979111,524.000000 144.958206,524.000000 126.400734,523.658813 
	C124.921967,521.756531 124.074310,520.128418 123.023041,518.644531 
	C112.102135,503.229767 100.910355,488.000275 90.284996,472.385071 
	C82.824249,461.420654 75.941292,450.048096 69.131142,438.659973 
	C61.728878,426.281738 54.370518,413.854309 47.615162,401.118317 
	C40.380970,387.479584 33.543419,373.606171 27.132231,359.561523 
	C19.688301,343.254517 12.959659,326.622101 5.755470,310.203369 
	C4.616091,307.606628 2.606984,305.391541 0.999998,303.000000 
	C1.000000,250.979111 1.000000,198.958206 1.000001,146.468658 
z"/>
<path fill="#3B4149" opacity="1.000000" stroke="none" 
	d="
M319.531342,1.000000 
	C321.997894,50.596401 329.608093,99.250137 345.478149,146.371811 
	C350.885468,162.427277 357.727081,177.999039 363.871429,193.808105 
	C364.404541,195.179688 364.623230,196.673477 364.529388,198.572678 
	C353.834930,199.034851 343.599030,199.034851 332.875610,199.034851 
	C332.875610,219.496155 332.875610,239.249252 332.875610,259.002350 
	C331.526550,257.874054 329.605957,257.019348 328.914948,255.576004 
	C319.864532,236.673187 309.980286,218.082901 302.334930,198.617050 
	C293.711090,176.659973 286.036133,154.189026 279.996979,131.398773 
	C274.267090,109.775726 271.177673,87.452415 266.941772,65.434235 
	C262.905823,44.455185 262.421143,23.197712 262.000000,1.468127 
	C281.020905,1.000000 300.041779,1.000000 319.531342,1.000000 
z"/>
<path fill="#363B43" opacity="1.000000" stroke="none" 
	d="
M266.149597,251.002853 
	C268.061707,253.747620 270.190491,256.367859 271.851257,259.257111 
	C284.006561,280.403748 295.589691,301.897369 308.325378,322.685974 
	C316.977783,336.809479 326.577301,350.467438 336.887421,363.431549 
	C349.577362,379.388000 363.102600,394.723297 376.917877,409.727570 
	C387.489075,421.208466 398.707977,432.161407 410.302368,442.613068 
	C422.730377,453.816101 435.579498,464.624817 448.893280,474.753265 
	C464.344818,486.507996 480.372711,497.524567 496.416534,508.471527 
	C502.692169,512.753540 509.722931,515.919861 516.337219,519.720581 
	C517.987366,520.668823 519.356079,522.106750 520.927124,523.659790 
	C500.312439,524.000000 479.624878,524.000000 458.373230,523.675171 
	C452.225403,519.287109 446.525330,515.373230 441.080902,511.131226 
	C427.759399,500.751892 414.280518,490.547089 401.385864,479.655396 
	C389.494293,469.610931 378.023254,459.029053 366.849396,448.186646 
	C357.695892,439.304657 349.009125,429.906006 340.557678,420.345490 
	C330.818115,409.327911 321.295227,398.093384 312.185455,386.552673 
	C305.044037,377.505554 298.524384,367.951965 292.001404,358.436310 
	C284.131683,346.956177 276.314240,335.426819 268.909515,323.645142 
	C261.325378,311.577911 254.267578,299.179901 247.105209,286.612549 
	C249.810730,282.845184 252.390427,279.391937 255.262604,275.780334 
	C257.384430,272.767334 259.213776,269.912689 261.303101,266.821716 
	C263.091919,261.391266 264.620758,256.197052 266.149597,251.002853 
z"/>
<path fill="#363B43" opacity="1.000000" stroke="none" 
	d="
M198.084137,217.248901 
	C195.459442,210.448013 192.587936,203.729889 190.272598,196.825272 
	C187.384964,188.214035 184.669601,179.523117 182.395737,170.733170 
	C179.004028,157.622147 175.996857,144.409805 172.952271,131.211441 
	C170.688629,121.398468 168.320969,111.593513 166.555847,101.685890 
	C164.695969,91.246338 163.424973,80.698563 162.035172,70.179779 
	C161.169403,63.627201 160.448944,57.050594 159.864304,50.466923 
	C159.134781,42.251575 158.511475,34.023766 158.028763,25.790407 
	C157.562546,17.838694 157.333328,9.873085 157.000000,1.456791 
	C173.687561,1.000000 190.375122,1.000000 207.531342,1.000000 
	C209.940643,25.801464 211.144791,50.688107 214.000854,75.383698 
	C217.925797,109.321770 226.596298,142.340271 236.326324,175.033051 
	C239.548569,185.859772 243.850906,196.362350 247.521591,207.060410 
	C248.312683,209.365997 248.509399,211.875549 248.720688,214.606964 
	C247.958389,214.708374 247.455307,214.493942 246.659424,214.081589 
	C244.244690,212.922318 242.122726,211.960968 239.722519,210.777740 
	C236.954391,209.893295 234.464523,209.230728 231.559387,208.446640 
	C229.428162,208.234055 227.712158,208.143005 225.573959,207.997955 
	C222.434692,208.297836 219.717636,208.651733 216.631699,209.003784 
	C214.850601,209.418289 213.438370,209.834625 211.685791,210.279877 
	C209.914658,211.018936 208.483902,211.729080 206.746948,212.523865 
	C204.503220,214.008224 202.565674,215.407944 200.310547,216.867249 
	C199.356674,217.034210 198.720413,217.141556 198.084137,217.248901 
M225.341766,185.722641 
	C225.887024,189.094864 223.979355,193.057007 227.428055,196.356049 
	C229.861801,190.752380 229.374176,181.836456 226.220078,178.837753 
	C225.880173,181.160553 225.611420,182.997147 225.341766,185.722641 
z"/>
<path fill="#555A61" opacity="1.000000" stroke="none" 
	d="
M816.000000,111.531342 
	C798.262085,110.179932 780.824768,107.216423 765.211121,97.847923 
	C757.701538,93.342026 749.611694,89.429947 743.069153,83.765381 
	C730.632019,72.997253 719.366394,60.857616 712.758118,45.451275 
	C708.397095,35.284069 704.820862,24.753727 701.414429,14.217462 
	C700.168945,10.365075 700.427551,6.026398 700.000000,1.454784 
	C738.591980,1.000000 777.184021,1.000000 816.000000,1.000000 
	C816.000000,37.687256 816.000000,74.374969 816.000000,111.531342 
z"/>
<path fill="#272D36" opacity="1.000000" stroke="none" 
	d="
M0.999998,303.468658 
	C2.606984,305.391541 4.616091,307.606628 5.755470,310.203369 
	C12.959659,326.622101 19.688301,343.254517 27.132231,359.561523 
	C33.543419,373.606171 40.380970,387.479584 47.615162,401.118317 
	C54.370518,413.854309 61.728878,426.281738 69.131142,438.659973 
	C75.941292,450.048096 82.824249,461.420654 90.284996,472.385071 
	C100.910355,488.000275 112.102135,503.229767 123.023041,518.644531 
	C124.074310,520.128418 124.921967,521.756531 125.932076,523.658813 
	C107.645775,524.000000 89.291542,524.000000 70.449921,523.630188 
	C69.534050,522.018066 69.340164,520.621338 68.639984,519.557922 
	C63.089710,511.128998 57.335213,502.833344 51.850796,494.362488 
	C43.124432,480.884277 34.217434,467.504608 26.026398,453.703705 
	C18.755869,441.453735 12.423277,428.649567 5.491498,416.193085 
	C4.543613,414.489746 2.523621,413.382965 1.000001,412.000000 
	C1.000000,375.979095 1.000000,339.958221 0.999998,303.468658 
z"/>
<path fill="#353A42" opacity="1.000000" stroke="none" 
	d="
M246.979385,286.926697 
	C254.267578,299.179901 261.325378,311.577911 268.909515,323.645142 
	C276.314240,335.426819 284.131683,346.956177 292.001404,358.436310 
	C298.524384,367.951965 305.044037,377.505554 312.185455,386.552673 
	C321.295227,398.093384 330.818115,409.327911 340.557678,420.345490 
	C349.009125,429.906006 357.695892,439.304657 366.849396,448.186646 
	C378.023254,459.029053 389.494293,469.610931 401.385864,479.655396 
	C414.280518,490.547089 427.759399,500.751892 441.080902,511.131226 
	C446.525330,515.373230 452.225403,519.287109 457.904602,523.675171 
	C442.645782,524.000000 427.291534,524.000000 411.468658,524.000000 
	C410.245728,522.632751 409.792694,520.926697 408.692566,519.948364 
	C387.752014,501.325775 366.094635,483.455231 345.909241,464.052124 
	C324.497864,443.470581 304.654633,421.230377 287.065399,397.239716 
	C273.546570,378.800812 261.154541,359.534576 248.316132,340.599152 
	C246.088379,337.313416 244.132919,333.843079 242.035980,329.779968 
	C243.041946,323.893829 238.738632,326.920502 236.878357,325.636810 
	C236.801483,324.259949 236.903442,323.138885 237.428970,322.023560 
	C240.281677,321.951660 242.743744,322.412750 242.923233,318.525635 
	C243.154556,313.515869 240.240265,313.790619 236.496399,314.200562 
	C234.707916,314.049988 233.331100,313.945587 231.954285,313.841187 
	C231.956345,312.770508 231.958405,311.699829 231.943756,309.771240 
	C231.928421,299.828735 231.759094,290.739014 232.032013,281.662598 
	C232.117249,278.828583 233.396698,276.030457 234.450943,273.113586 
	C236.177139,272.310455 237.581879,271.609619 239.366364,270.934692 
	C241.171982,269.715912 242.597839,268.471191 244.023697,267.226501 
	C242.942383,266.021729 241.861053,264.816986 240.500519,263.352142 
	C237.721359,259.466309 237.951294,255.799103 240.336212,251.917648 
	C242.409744,250.802155 244.201431,249.872452 246.344879,249.006866 
	C248.440659,249.728195 250.184662,250.385376 252.121246,251.366455 
	C255.185822,255.285004 254.378708,259.049072 252.532623,263.029785 
	C247.153870,264.766418 248.190033,270.666870 244.563065,273.675232 
	C241.440994,275.478302 236.273438,274.005371 236.110641,278.907623 
	C235.771835,289.110504 236.008224,299.332458 236.008224,309.437927 
	C240.763611,310.806152 242.799362,310.153870 243.038025,304.963501 
	C243.313446,298.974182 244.998993,293.049744 246.299927,287.059448 
	C246.527649,287.021790 246.979385,286.926697 246.979385,286.926697 
M247.835846,261.384003 
	C250.900620,259.485657 251.383835,256.825195 248.912491,254.461792 
	C248.016891,253.605270 245.540131,254.402115 243.784866,254.444519 
	C243.855728,256.526031 243.713684,258.652924 244.140762,260.658569 
	C244.253601,261.188416 246.121735,261.344482 247.835846,261.384003 
z"/>
<path fill="#252A33" opacity="1.000000" stroke="none" 
	d="
M1.000001,412.468658 
	C2.523621,413.382965 4.543613,414.489746 5.491498,416.193085 
	C12.423277,428.649567 18.755869,441.453735 26.026398,453.703705 
	C34.217434,467.504608 43.124432,480.884277 51.850796,494.362488 
	C57.335213,502.833344 63.089710,511.128998 68.639984,519.557922 
	C69.340164,520.621338 69.534050,522.018066 69.981262,523.630188 
	C47.055725,524.000000 24.111446,524.000000 1.000000,524.000000 
	C1.000000,486.979279 1.000000,449.958282 1.000001,412.468658 
z"/>
<path fill="#FDFDFD" opacity="1.000000" stroke="none" 
	d="
M579.532471,198.952942 
	C590.285889,198.940216 600.581787,198.823837 610.865662,199.124008 
	C619.758911,199.383591 628.831299,199.756897 636.713867,204.457184 
	C652.897888,214.107590 654.990051,235.991684 641.144897,249.764343 
	C638.803528,251.505157 636.589294,252.930679 633.951965,254.628586 
	C642.899414,257.774231 649.723572,262.677551 653.300842,271.496643 
	C661.665527,292.118408 650.303955,314.070709 628.403198,318.831238 
	C623.231201,319.955475 617.871277,320.678925 612.587646,320.742523 
	C593.939941,320.966888 575.287964,320.826965 556.637573,320.811310 
	C555.997742,320.810791 555.358032,320.662018 554.398987,320.542572 
	C554.398987,280.214783 554.398987,240.005249 554.398987,199.030121 
	C562.567505,199.030121 570.818604,199.030121 579.532471,198.952942 
M599.499390,266.707520 
	C593.414673,266.707520 587.330017,266.707520 581.187012,266.707520 
	C581.187012,278.127838 581.187012,288.868256 581.187012,299.141449 
	C593.208252,299.141449 605.031128,299.906586 616.700623,298.897888 
	C625.935547,298.099640 629.481812,292.158112 629.049438,282.246277 
	C628.662231,273.369202 623.746948,267.877869 614.969849,267.068115 
	C610.175781,266.625824 605.324158,266.807404 599.499390,266.707520 
M607.270752,219.988266 
	C598.529602,219.988266 589.788452,219.988266 581.250549,219.988266 
	C581.250549,229.825378 581.250549,238.922943 581.250549,248.069000 
	C591.543030,248.069000 601.526855,248.365845 611.483765,247.975372 
	C619.489319,247.661407 623.853638,242.681747 624.124634,234.763260 
	C624.451355,225.213089 619.540710,220.662491 607.270752,219.988266 
z"/>
<path fill="#FDFDFD" opacity="1.000000" stroke="none" 
	d="
M436.086182,280.745605 
	C444.610657,280.321472 453.075928,280.321472 461.433136,280.321472 
	C465.327454,301.073334 490.013306,310.434021 507.024658,298.090363 
	C513.670410,293.268127 514.123047,284.064667 507.816742,278.768066 
	C500.374115,272.517090 490.897980,271.478058 481.974579,269.100037 
	C471.230865,266.236908 460.400330,263.806000 451.236145,256.823944 
	C436.424774,245.539413 437.417633,223.199341 447.875275,211.320007 
	C453.973633,204.392609 461.761505,200.701370 470.648376,197.956970 
	C484.833038,195.121414 498.396576,195.795364 511.588806,201.099121 
	C525.913879,206.858337 534.804138,220.462830 533.656616,235.115326 
	C525.386169,235.115326 517.098328,235.115326 508.451843,235.115326 
	C507.345612,227.542847 504.550110,221.054153 496.326355,218.744797 
	C488.992249,216.685272 481.639343,215.901566 474.377411,218.966873 
	C468.516785,221.440674 465.903534,225.482605 465.934082,231.211227 
	C465.965546,237.115540 469.756042,239.880249 474.614014,241.352676 
	C486.987305,245.103012 499.534393,248.296906 511.838806,252.252075 
	C521.290466,255.290237 529.984009,259.814636 534.807373,269.301483 
	C543.019348,285.453278 537.079346,304.549316 520.054932,316.276062 
	C500.273071,325.335632 480.481323,326.276459 460.490112,318.087006 
	C444.649750,311.597931 435.957550,298.381073 436.086182,280.745605 
z"/>
<path fill="#FCFCFC" opacity="1.000000" stroke="none" 
	d="
M332.955566,259.464844 
	C332.875610,239.249252 332.875610,219.496155 332.875610,199.034851 
	C343.599030,199.034851 353.834930,199.034851 364.533508,198.956696 
	C384.456573,198.878555 403.916931,198.878555 423.727203,198.878555 
	C423.727203,206.560211 423.727203,213.797638 423.727203,221.495911 
	C402.730072,221.495911 381.650208,221.495911 360.248230,221.495911 
	C360.248230,230.341980 360.248230,238.738632 360.248230,247.683990 
	C379.714203,247.683990 399.102936,247.683990 418.956085,247.683990 
	C418.956085,250.846161 418.956085,253.470993 419.039185,256.549194 
	C419.122253,260.634430 419.122253,264.266357 419.122253,268.582825 
	C407.055756,268.582825 395.481445,268.582825 383.001099,268.585083 
	C374.851807,268.587372 367.608612,268.587372 360.322937,268.587372 
	C360.322937,278.710419 360.322937,288.370911 360.322937,297.940338 
	C373.807922,297.940338 386.903564,297.940338 399.999237,297.940338 
	C408.284393,297.940338 416.569550,297.940338 425.185425,297.940338 
	C425.185425,305.713562 425.185425,312.945679 425.185425,320.867950 
	C411.691620,320.867950 398.304932,320.867950 384.458160,320.964600 
	C367.254517,321.061218 350.510956,321.061218 333.035492,321.061218 
	C333.035492,300.303528 333.035492,280.115448 332.955566,259.464844 
z"/>
<path fill="#3B4149" opacity="1.000000" stroke="none" 
	d="
M399.979553,297.580078 
	C386.903564,297.940338 373.807922,297.940338 360.322937,297.940338 
	C360.322937,288.370911 360.322937,278.710419 360.322937,268.587372 
	C367.608612,268.587372 374.851807,268.587372 382.548462,268.716766 
	C386.696075,275.071136 390.380615,281.301849 394.088409,287.518738 
	C396.024536,290.764984 398.001434,293.986908 399.979553,297.580078 
z"/>
<path fill="#945F39" opacity="1.000000" stroke="none" 
	d="
M252.827621,262.847382 
	C254.378708,259.049072 255.185822,255.285004 252.486420,251.206085 
	C253.105408,248.715317 253.830139,246.725189 253.949066,244.699478 
	C254.413589,236.786530 254.686447,228.862320 255.030548,220.942307 
	C256.989197,223.714706 258.947845,226.487106 260.802490,229.990295 
	C260.465668,239.756821 260.126709,248.791763 260.058807,257.828705 
	C260.035675,260.902496 260.695435,263.981445 261.043121,267.058014 
	C259.213776,269.912689 257.384430,272.767334 255.186493,275.380615 
	C254.154495,271.041962 253.491058,266.944672 252.827621,262.847382 
z"/>
<path fill="#A16D45" opacity="1.000000" stroke="none" 
	d="
M254.866486,220.660248 
	C254.686447,228.862320 254.413589,236.786530 253.949066,244.699478 
	C253.830139,246.725189 253.105408,248.715317 252.293823,250.882172 
	C250.184662,250.385376 248.440659,249.728195 246.348724,248.542816 
	C246.002762,245.526184 245.938065,243.035538 246.018738,240.549637 
	C246.302963,231.792053 246.637054,223.036087 246.952209,214.279510 
	C247.455307,214.493942 247.958389,214.708374 248.713150,215.036743 
	C250.877365,216.893173 252.789886,218.635681 254.866486,220.660248 
z"/>
<path fill="#895531" opacity="1.000000" stroke="none" 
	d="
M261.303101,266.821716 
	C260.695435,263.981445 260.035675,260.902496 260.058807,257.828705 
	C260.126709,248.791763 260.465668,239.756821 260.868286,230.333923 
	C265.405304,235.992142 266.091125,242.955322 266.105591,250.549866 
	C264.620758,256.197052 263.091919,261.391266 261.303101,266.821716 
z"/>
<path fill="#AE774E" opacity="1.000000" stroke="none" 
	d="
M287.002563,242.092255 
	C287.585449,243.169159 287.776947,244.203064 287.968475,245.236969 
	C283.203003,245.005722 278.436981,244.783249 273.675659,244.485703 
	C273.571075,244.479172 273.520081,243.614929 273.263733,242.049271 
	C277.885498,242.049271 282.248352,242.049271 287.002563,242.092255 
z"/>
<path fill="#C78F64" opacity="1.000000" stroke="none" 
	d="
M262.069580,207.285645 
	C264.079742,200.343384 266.412476,198.084290 271.147949,198.684952 
	C268.838715,202.610657 266.936005,206.499725 262.069580,207.285645 
z"/>
<path fill="#A16D45" opacity="1.000000" stroke="none" 
	d="
M194.634735,296.186707 
	C193.487564,293.492340 191.812912,290.891266 191.315872,288.081879 
	C190.556046,283.786926 190.608978,279.348236 190.119629,274.141479 
	C189.945557,261.442474 190.034409,249.571869 189.913315,237.703415 
	C189.897217,236.125534 188.815018,234.558548 188.226562,232.986526 
	C190.291519,229.442398 192.356491,225.898270 194.798553,222.605713 
	C195.449844,230.932831 195.655167,239.011749 196.045746,247.081696 
	C196.145584,249.144211 196.831665,251.178345 197.248383,253.225525 
	C197.469177,255.879684 197.689957,258.533844 197.623596,261.733521 
	C196.890549,263.945709 196.089218,265.606049 196.059555,267.280060 
	C195.921860,275.053619 196.083679,282.832611 195.935440,290.605743 
	C195.899826,292.473663 195.089035,294.326782 194.634735,296.186707 
z"/>
<path fill="#BD865B" opacity="1.000000" stroke="none" 
	d="
M238.986618,270.908813 
	C237.581879,271.609619 236.177139,272.310455 234.273529,272.716675 
	C233.517624,266.002045 233.330658,259.578156 232.975159,253.163574 
	C232.786469,249.758759 232.305466,246.370132 231.956421,242.974197 
	C231.956421,242.974197 231.972748,242.483749 232.253281,242.002777 
	C235.185837,237.984619 233.240387,234.737335 231.981277,231.005142 
	C232.034027,223.228256 232.004333,215.898224 231.974640,208.568176 
	C234.464523,209.230728 236.954391,209.893295 239.723083,211.246429 
	C240.019379,225.325806 240.036880,238.714615 240.054367,252.103439 
	C237.951294,255.799103 237.721359,259.466309 240.155869,263.637573 
	C239.722473,266.425018 239.354538,268.666901 238.986618,270.908813 
z"/>
<path fill="#CC976D" opacity="1.000000" stroke="none" 
	d="
M218.109650,240.941986 
	C225.290817,245.026627 223.784485,251.944321 223.785172,258.365570 
	C223.786850,274.165039 223.833786,289.965027 223.687653,305.763184 
	C223.674530,307.181976 222.392319,308.589020 221.699493,310.001526 
	C221.024765,308.589203 219.807236,307.192810 219.765320,305.761963 
	C219.531631,297.785034 219.870224,289.782532 219.391098,281.826202 
	C219.206284,278.757324 217.385147,275.787018 216.211670,272.042053 
	C216.408981,263.579071 216.639496,255.842484 217.037674,248.114502 
	C217.161484,245.711639 217.739548,243.332169 218.109650,240.941986 
z"/>
<path fill="#CD9468" opacity="1.000000" stroke="none" 
	d="
M218.072418,240.508209 
	C217.739548,243.332169 217.161484,245.711639 217.037674,248.114502 
	C216.639496,255.842484 216.408981,263.579071 216.026794,271.732544 
	C214.852814,271.795105 213.765869,271.437439 212.339142,270.578217 
	C211.579498,267.918335 211.159637,265.760010 210.739777,263.601685 
	C212.878784,260.336884 214.079300,256.958344 211.952744,252.314972 
	C211.943893,237.715256 211.985031,223.983124 212.026154,210.250977 
	C213.438370,209.834625 214.850601,209.418289 216.631027,209.472015 
	C217.332428,217.960709 217.665634,225.979294 217.998840,233.997894 
	C218.010971,236.023407 218.023087,238.048935 218.072418,240.508209 
z"/>
<path fill="#C38C62" opacity="1.000000" stroke="none" 
	d="
M208.173645,274.455475 
	C215.411041,275.632812 215.887100,276.157227 215.903503,283.277863 
	C215.921097,290.915833 215.796478,298.556000 215.950455,306.190857 
	C216.019836,309.632050 214.555145,311.035645 211.267792,310.995605 
	C207.728180,310.952484 208.076355,308.455688 207.979431,306.089508 
	C207.906693,304.313690 207.561646,302.549011 207.168304,299.937347 
	C207.390396,290.882019 207.782028,282.668762 208.173645,274.455475 
z"/>
<path fill="#C78F64" opacity="1.000000" stroke="none" 
	d="
M231.635437,243.161530 
	C232.305466,246.370132 232.786469,249.758759 232.975159,253.163574 
	C233.330658,259.578156 233.517624,266.002045 233.952057,272.818970 
	C233.396698,276.030457 232.117249,278.828583 232.032013,281.662598 
	C231.759094,290.739014 231.928421,299.828735 231.929260,309.369904 
	C229.055069,310.525269 227.650085,309.759644 227.666595,306.435394 
	C227.762482,287.151245 227.615829,267.865204 227.863373,248.583786 
	C227.885971,246.824341 230.111786,245.093170 231.635437,243.161530 
z"/>
<path fill="#D69D6F" opacity="1.000000" stroke="none" 
	d="
M218.241516,233.803772 
	C217.665634,225.979294 217.332428,217.960709 216.999908,209.473877 
	C219.717636,208.651733 222.434692,208.297836 225.656845,208.403793 
	C226.442993,215.606415 226.724045,222.349213 226.738953,229.162872 
	C226.300049,229.295898 226.127289,229.358032 225.954529,229.420197 
	C224.185059,229.973724 222.415573,230.527237 220.117157,231.197754 
	C219.293289,231.460205 219.218445,231.680496 219.363678,231.975632 
	C219.070526,232.520309 218.777359,233.064987 218.241516,233.803772 
z"/>
<path fill="#AE774E" opacity="1.000000" stroke="none" 
	d="
M194.902191,296.468689 
	C195.089035,294.326782 195.899826,292.473663 195.935440,290.605743 
	C196.083679,282.832611 195.921860,275.053619 196.059555,267.280060 
	C196.089218,265.606049 196.890549,263.945709 197.702209,262.122406 
	C200.761398,264.191742 203.987274,266.029938 203.736801,270.702698 
	C202.951019,272.877655 202.098099,274.516571 202.064331,276.172211 
	C201.916382,283.428650 202.005569,290.689880 202.008728,297.949371 
	C199.729050,297.549805 197.449356,297.150238 194.902191,296.468689 
z"/>
<path fill="#AE774E" opacity="1.000000" stroke="none" 
	d="
M197.532532,253.110199 
	C196.831665,251.178345 196.145584,249.144211 196.045746,247.081696 
	C195.655167,239.011749 195.449844,230.932831 195.096008,222.450989 
	C195.945908,220.633362 196.875443,219.221985 197.944550,217.529755 
	C198.720413,217.141556 199.356674,217.034210 200.607880,217.194290 
	C201.481277,219.401154 201.938538,221.337982 201.964035,223.280457 
	C202.079315,232.064224 202.072540,240.849609 202.109711,249.634399 
	C200.678696,250.754547 199.247681,251.874695 197.532532,253.110199 
z"/>
<path fill="#945F39" opacity="1.000000" stroke="none" 
	d="
M188.026611,233.315735 
	C188.815018,234.558548 189.897217,236.125534 189.913315,237.703415 
	C190.034409,249.571869 189.945557,261.442474 189.884918,273.806641 
	C188.499802,274.221283 187.152100,274.141693 185.397400,273.561157 
	C184.595444,267.265381 184.200500,261.470581 183.805542,255.675766 
	C185.145920,248.332153 186.486282,240.988556 188.026611,233.315735 
z"/>
<path fill="#C38C62" opacity="1.000000" stroke="none" 
	d="
M211.685791,210.279877 
	C211.985031,223.983124 211.943893,237.715256 211.861969,251.950989 
	C210.378815,251.485107 208.936447,250.515656 207.242462,248.867676 
	C207.011612,236.272537 207.032379,224.355896 207.053162,212.439240 
	C208.483902,211.729080 209.914658,211.018936 211.685791,210.279877 
z"/>
<path fill="#BA8358" opacity="1.000000" stroke="none" 
	d="
M206.746964,212.523880 
	C207.032379,224.355896 207.011612,236.272537 206.984787,248.670700 
	C205.625565,249.270966 204.272385,249.389709 202.514465,249.571442 
	C202.072540,240.849609 202.079315,232.064224 201.964035,223.280457 
	C201.938538,221.337982 201.481277,219.401154 200.925476,217.134689 
	C202.565674,215.407944 204.503220,214.008224 206.746964,212.523880 
z"/>
<path fill="#BA8358" opacity="1.000000" stroke="none" 
	d="
M202.337402,298.037903 
	C202.005569,290.689880 201.916382,283.428650 202.064331,276.172211 
	C202.098099,274.516571 202.951019,272.877655 203.802002,271.072296 
	C205.360809,271.969391 206.544525,273.025238 207.950928,274.268250 
	C207.782028,282.668762 207.390396,290.882019 206.991913,299.566833 
	C205.545395,299.401062 204.105743,298.763733 202.337402,298.037903 
z"/>
<path fill="#895531" opacity="1.000000" stroke="none" 
	d="
M183.560364,255.948395 
	C184.200500,261.470581 184.595444,267.265381 184.992065,273.526459 
	C182.567535,273.992706 180.141327,273.992706 176.777023,273.992706 
	C179.153152,267.534058 181.234161,261.877533 183.560364,255.948395 
z"/>
<path fill="#AE774E" opacity="1.000000" stroke="none" 
	d="
M237.005386,322.017792 
	C236.903442,323.138885 236.801483,324.259949 236.861908,326.059875 
	C237.008118,328.141876 236.991928,329.545044 236.975754,330.948242 
	C235.260605,331.002289 233.545471,331.056366 231.413986,330.632141 
	C230.983902,328.813965 230.970169,327.474060 230.956421,326.134125 
	C231.346298,325.047333 231.736191,323.960510 232.054474,322.063232 
	C232.004623,318.919403 232.026382,316.586060 232.048141,314.252716 
	C232.048141,314.252716 231.973785,314.053253 231.964035,313.947205 
	C233.331100,313.945587 234.707916,314.049988 236.515808,314.624878 
	C236.966370,317.402863 236.985870,319.710327 237.005386,322.017792 
z"/>
<path fill="#B47E54" opacity="1.000000" stroke="none" 
	d="
M164.784332,245.648010 
	C163.491241,244.859177 162.600922,244.104568 161.710602,243.349960 
	C162.617569,242.766663 163.453262,241.892776 164.443710,241.649857 
	C168.974899,240.538483 174.838837,241.450668 177.889908,243.861862 
	C173.828278,246.950562 169.364883,245.522400 164.784332,245.648010 
z"/>
<path fill="#AE774E" opacity="1.000000" stroke="none" 
	d="
M207.139801,261.048523 
	C204.998764,260.422028 202.733231,259.958557 201.516129,258.573669 
	C200.947250,257.926392 201.990784,255.052841 203.088104,254.030045 
	C203.841324,253.327927 207.169373,253.835602 207.243759,254.214890 
	C207.662918,256.352264 207.445267,258.614502 207.139801,261.048523 
z"/>
<path fill="#D69D6F" opacity="1.000000" stroke="none" 
	d="
M222.053284,314.284882 
	C224.067001,314.235199 226.080734,314.185516 228.524307,314.625122 
	C228.956726,317.347809 228.959290,319.581207 228.961868,321.814575 
	C226.940689,321.854492 224.919495,321.894379 222.465088,321.453766 
	C222.039017,318.743805 222.046143,316.514343 222.053284,314.284882 
z"/>
<path fill="#945F39" opacity="1.000000" stroke="none" 
	d="
M215.038956,321.861603 
	C212.571548,321.499939 209.095963,323.714294 208.131897,319.442047 
	C207.147797,315.080902 208.358719,314.093414 214.604248,314.574402 
	C215.029190,317.325897 215.034073,319.593750 215.038956,321.861603 
z"/>
<path fill="#B47E54" opacity="1.000000" stroke="none" 
	d="
M229.538696,239.114975 
	C226.865982,242.316299 224.354828,242.729156 221.997284,238.094421 
	C221.892670,237.504684 221.784195,237.065125 221.784195,237.065125 
	C222.960464,235.737747 224.136719,234.410385 225.941772,233.168182 
	C227.559937,235.207245 228.549316,237.161118 229.538696,239.114975 
z"/>
<path fill="#424245" opacity="1.000000" stroke="none" 
	d="
M229.740326,239.448441 
	C228.549316,237.161118 227.559937,235.207245 226.277222,233.081451 
	C225.978363,231.979004 225.972824,231.048477 225.960907,229.769058 
	C226.127289,229.358032 226.300049,229.295898 227.017700,229.354492 
	C229.007996,230.134140 230.453415,230.793060 231.898849,231.451981 
	C233.240387,234.737335 235.185837,237.984619 232.264160,241.757645 
	C231.310333,241.256302 230.626144,240.519104 229.740326,239.448441 
z"/>
<path fill="#CD9468" opacity="1.000000" stroke="none" 
	d="
M230.507355,326.096252 
	C230.970169,327.474060 230.983902,328.813965 230.991165,330.556030 
	C227.959763,331.000671 224.934845,331.043152 221.453812,330.622864 
	C221.010712,328.822968 221.023727,327.485870 221.036743,326.148773 
	C224.043915,326.118652 227.051102,326.088531 230.507355,326.096252 
z"/>
<path fill="#945F39" opacity="1.000000" stroke="none" 
	d="
M215.992142,330.992004 
	C215.022202,331.019165 213.882065,331.384521 213.119034,331.000549 
	C211.692429,330.282623 210.484604,329.129974 209.185745,328.158203 
	C210.534653,327.432953 211.849243,326.628448 213.249756,326.022461 
	C213.792328,325.787659 214.529297,326.002228 215.587219,326.468994 
	C215.995193,328.281219 215.993668,329.636627 215.992142,330.992004 
z"/>
<path fill="#AE774E" opacity="1.000000" stroke="none" 
	d="
M215.438904,321.901611 
	C215.034073,319.593750 215.029190,317.325897 215.041168,314.636444 
	C216.126740,314.179932 217.195435,314.145050 218.650391,314.599731 
	C219.038620,317.337830 219.040619,319.586334 219.042603,321.834839 
	C217.974686,321.870422 216.906784,321.906006 215.438904,321.901611 
z"/>
<path fill="#BD865B" opacity="1.000000" stroke="none" 
	d="
M210.409271,263.736816 
	C211.159637,265.760010 211.579498,267.918335 212.006378,270.492310 
	C210.446762,269.822449 208.880142,268.736877 207.313507,267.651337 
	C208.235260,266.391541 209.157013,265.131744 210.409271,263.736816 
z"/>
<path fill="#B47E54" opacity="1.000000" stroke="none" 
	d="
M216.410217,331.025665 
	C215.993668,329.636627 215.995193,328.281219 216.018082,326.522827 
	C217.429688,326.085846 218.819931,326.051880 220.623444,326.083313 
	C221.023727,327.485870 221.010712,328.822968 221.003815,330.562073 
	C219.616043,330.995850 218.222153,331.027588 216.410217,331.025665 
z"/>
<path fill="#945F39" opacity="1.000000" stroke="none" 
	d="
M237.343262,330.992310 
	C236.991928,329.545044 237.008118,328.141876 237.040756,326.315613 
	C238.738632,326.920502 243.041946,323.893829 241.957123,329.420105 
	C240.499588,330.170959 239.105179,330.603668 237.343262,330.992310 
z"/>
<path fill="#C38C62" opacity="1.000000" stroke="none" 
	d="
M229.333466,321.884308 
	C228.959290,319.581207 228.956726,317.347809 228.950653,314.697784 
	C229.723099,314.234558 230.499039,314.187988 231.661560,314.197083 
	C232.026382,316.586060 232.004623,318.919403 231.973419,321.696503 
	C231.210999,322.078186 230.458038,322.016113 229.333466,321.884308 
z"/>
<path fill="#C38C62" opacity="1.000000" stroke="none" 
	d="
M219.416321,321.883240 
	C219.040619,319.586334 219.038620,317.337830 219.045746,314.670227 
	C219.807419,314.212189 220.559982,314.173218 221.682892,314.209595 
	C222.046143,316.514343 222.039017,318.743805 222.035690,321.392273 
	C221.289688,321.851440 220.539856,321.891571 219.416321,321.883240 
z"/>
<path fill="#424245" opacity="1.000000" stroke="none" 
	d="
M219.487183,231.898026 
	C219.218445,231.680496 219.293289,231.460205 219.781494,231.341980 
	C219.886688,231.546478 219.765335,231.696884 219.487183,231.898026 
z"/>
<path fill="#424245" opacity="1.000000" stroke="none" 
	d="
M221.697128,237.164597 
	C221.784195,237.065125 221.892670,237.504684 221.860535,237.728134 
	C221.585770,237.770645 221.512985,237.541473 221.697128,237.164597 
z"/>
<path fill="#A16D45" opacity="1.000000" stroke="none" 
	d="
M252.532623,263.029785 
	C253.491058,266.944672 254.154495,271.041962 254.894028,275.538971 
	C252.390427,279.391937 249.810730,282.845184 247.105209,286.612549 
	C246.979385,286.926697 246.527649,287.021790 246.127930,286.672668 
	C245.459900,282.052887 245.191589,277.782196 244.923264,273.511505 
	C248.190033,270.666870 247.153870,264.766418 252.532623,263.029785 
z"/>
<path fill="#AE774E" opacity="1.000000" stroke="none" 
	d="
M240.336212,251.917648 
	C240.036880,238.714615 240.019379,225.325806 240.001328,211.468292 
	C242.122726,211.960968 244.244690,212.922318 246.659424,214.081589 
	C246.637054,223.036087 246.302963,231.792053 246.018738,240.549637 
	C245.938065,243.035538 246.002762,245.526184 245.996948,248.478699 
	C244.201431,249.872452 242.409744,250.802155 240.336212,251.917648 
z"/>
<path fill="#CD9468" opacity="1.000000" stroke="none" 
	d="
M231.981277,231.005142 
	C230.453415,230.793060 229.007996,230.134140 227.283829,229.283600 
	C226.724045,222.349213 226.442993,215.606415 226.079056,208.457794 
	C227.712158,208.143005 229.428162,208.234055 231.559387,208.446640 
	C232.004333,215.898224 232.034027,223.228256 231.981277,231.005142 
z"/>
<path fill="#B47E54" opacity="1.000000" stroke="none" 
	d="
M225.342224,185.278198 
	C225.611420,182.997147 225.880173,181.160553 226.220078,178.837753 
	C229.374176,181.836456 229.861801,190.752380 227.428055,196.356049 
	C223.979355,193.057007 225.887024,189.094864 225.342224,185.278198 
z"/>
<path fill="#B47E54" opacity="1.000000" stroke="none" 
	d="
M244.563065,273.675232 
	C245.191589,277.782196 245.459900,282.052887 245.900223,286.710327 
	C244.998993,293.049744 243.313446,298.974182 243.038025,304.963501 
	C242.799362,310.153870 240.763611,310.806152 236.008224,309.437927 
	C236.008224,299.332458 235.771835,289.110504 236.110641,278.907623 
	C236.273438,274.005371 241.440994,275.478302 244.563065,273.675232 
z"/>
<path fill="#B47E54" opacity="1.000000" stroke="none" 
	d="
M247.509857,261.528076 
	C246.121735,261.344482 244.253601,261.188416 244.140762,260.658569 
	C243.713684,258.652924 243.855728,256.526031 243.784851,254.444519 
	C245.540131,254.402115 248.016891,253.605270 248.912491,254.461792 
	C251.383835,256.825195 250.900620,259.485657 247.509857,261.528076 
z"/>
<path fill="#945F39" opacity="1.000000" stroke="none" 
	d="
M237.428955,322.023560 
	C236.985870,319.710327 236.966370,317.402863 236.927460,314.671082 
	C240.240265,313.790619 243.154556,313.515869 242.923233,318.525635 
	C242.743744,322.412750 240.281677,321.951660 237.428955,322.023560 
z"/>
<path fill="#AE774E" opacity="1.000000" stroke="none" 
	d="
M239.366364,270.934692 
	C239.354538,268.666901 239.722473,266.425018 240.435059,263.897675 
	C241.861053,264.816986 242.942383,266.021729 244.023697,267.226501 
	C242.597839,268.471191 241.171982,269.715912 239.366364,270.934692 
z"/>
<path fill="#464B52" opacity="1.000000" stroke="none" 
	d="
M599.998962,266.707581 
	C605.324158,266.807404 610.175781,266.625824 614.969849,267.068115 
	C623.746948,267.877869 628.662231,273.369202 629.049438,282.246277 
	C629.481812,292.158112 625.935547,298.099640 616.700623,298.897888 
	C605.031128,299.906586 593.208252,299.141449 581.187012,299.141449 
	C581.187012,288.868256 581.187012,278.127838 581.187012,266.707520 
	C587.330017,266.707520 593.414673,266.707520 599.998962,266.707581 
z"/>
<path fill="#474C54" opacity="1.000000" stroke="none" 
	d="
M607.737061,219.998901 
	C619.540710,220.662491 624.451355,225.213089 624.124634,234.763260 
	C623.853638,242.681747 619.489319,247.661407 611.483765,247.975372 
	C601.526855,248.365845 591.543030,248.069000 581.250549,248.069000 
	C581.250549,238.922943 581.250549,229.825378 581.250549,219.988266 
	C589.788452,219.988266 598.529602,219.988266 607.737061,219.998901 
z"/>
</svg>